<svg width="200" height="37" viewBox="0 0 200 37" fill="none" xmlns="http://www.w3.org/2000/svg">
<path d="M83.0414 8.87516C83.0414 6.89361 83.6673 4.75196 85.0447 3.07679C86.4549 1.36178 88.595 0.212891 91.4011 0.212891C96.1562 0.212909 98.6837 4.01456 98.6837 7.4727H95.704C95.704 5.321 94.1945 3.18283 91.4011 3.18281C89.4895 3.18281 88.1946 3.9314 87.3493 4.95941C86.4713 6.02729 86.0211 7.4743 86.0211 8.87516C86.0211 9.99231 86.3362 11.3479 86.78 12.6506C87.0439 13.4253 87.3395 14.1412 87.6057 14.7228C89.5842 15.2816 90.9432 16.324 92.2598 17.2174C93.1993 17.8549 94.127 18.4317 95.326 18.863C96.5208 19.2928 98.0493 19.5999 100.175 19.5999V22.5698C97.7477 22.5698 95.872 22.2169 94.3145 21.6567C92.7614 21.098 91.5887 20.3548 90.583 19.6724C88.5974 18.3251 87.3215 17.2899 84.5313 17.2899C82.2851 17.2899 81.0523 18.1294 79.6461 19.1489C78.9383 19.9369 78.8153 20.902 79.0878 21.6246C79.345 22.3067 80.0372 22.9823 81.4688 22.9823V25.9522C78.9032 25.9522 77.029 24.6066 76.2985 22.6694C76.0482 22.0056 75.9433 21.2993 75.9809 20.5932C75.2636 20.6958 74.4909 20.7094 73.722 20.565C72.5236 20.34 71.3375 19.7269 70.4785 18.5214C69.64 17.3447 69.2179 15.7507 69.2179 13.7425H72.1976C72.1976 15.3643 72.5411 16.2869 72.9079 16.8017C73.2542 17.2878 73.7132 17.5413 74.2736 17.6465C74.8672 17.758 75.5657 17.6959 76.2497 17.5089C76.9381 17.3207 77.4913 17.0393 77.7762 16.8323C79.2521 15.7605 81.0863 14.4096 84.2164 14.3242C84.1286 14.0906 84.042 13.8505 83.9585 13.6054C83.4712 12.1747 83.0414 10.4639 83.0414 8.87516Z" fill="#91897F"/>
<path d="M116.961 8.87516C116.961 6.89361 116.335 4.75196 114.958 3.07679C113.548 1.36178 111.407 0.212891 108.601 0.212891C103.846 0.212909 101.319 4.01456 101.319 7.4727H104.298C104.298 5.321 105.808 3.18283 108.601 3.18281C110.513 3.18281 111.808 3.9314 112.653 4.95941C113.531 6.02729 113.981 7.4743 113.981 8.87516C113.981 9.99231 113.666 11.3479 113.222 12.6506C112.959 13.4253 112.663 14.1412 112.397 14.7228C110.418 15.2816 109.059 16.324 107.743 17.2174C106.803 17.8549 105.875 18.4317 104.676 18.863C103.482 19.2928 101.953 19.5999 99.8278 19.5999V22.5698C102.255 22.5698 104.13 22.2169 105.688 21.6567C107.241 21.098 108.414 20.3548 109.419 19.6724C111.405 18.3251 112.681 17.2899 115.471 17.2899C117.717 17.2899 118.95 18.1294 120.356 19.1489C121.064 19.9369 121.187 20.902 120.915 21.6246C120.657 22.3067 119.965 22.9823 118.534 22.9823V25.9522C121.099 25.9522 122.973 24.6066 123.704 22.6694C123.954 22.0056 124.059 21.2993 124.022 20.5932C124.739 20.6958 125.512 20.7094 126.28 20.565C127.479 20.34 128.665 19.7269 129.524 18.5214C130.362 17.3447 130.785 15.7507 130.785 13.7425H127.805C127.805 15.3643 127.461 16.2869 127.095 16.8017C126.748 17.2878 126.289 17.5413 125.729 17.6465C125.135 17.758 124.437 17.6959 123.753 17.5089C123.064 17.3207 122.511 17.0393 122.226 16.8323C120.75 15.7605 118.916 14.4096 115.786 14.3242C115.874 14.0906 115.96 13.8505 116.044 13.6054C116.531 12.1747 116.961 10.4639 116.961 8.87516Z" fill="#91897F"/>
<path d="M57.7385 22.1636C57.7385 16.1585 59.9033 11.673 63.1893 8.70021C66.4466 5.75327 70.7017 4.38574 74.76 4.38574C81.1511 4.38574 84.7866 7.16162 85.9126 8.97896L83.3688 10.542C82.8895 9.76837 80.3253 7.36251 74.76 7.36251C71.3455 7.36251 67.837 8.51698 65.1992 10.9034C62.59 13.2639 60.7277 16.9233 60.7277 22.1636C60.7277 26.5211 61.8113 29.316 63.2707 31.0001C64.7119 32.6634 66.6614 33.4092 68.7817 33.4092C72.123 33.4092 73.8 31.4318 74.1643 30.6889L76.8502 31.9951C76.0521 33.6226 73.4114 36.386 68.7817 36.386C65.9201 36.386 63.0953 35.354 61.0077 32.9449C58.9382 30.5566 57.7385 26.9845 57.7385 22.1636Z" fill="#91897F"/>
<path d="M142.259 22.1636C142.259 16.1585 140.094 11.673 136.808 8.70021C133.551 5.75327 129.296 4.38574 125.238 4.38574C118.846 4.38574 115.211 7.16162 114.085 8.97896L116.629 10.542C117.108 9.76837 119.672 7.36251 125.238 7.36251C128.652 7.36251 132.161 8.51698 134.798 10.9034C137.408 13.2639 139.27 16.9233 139.27 22.1636C139.27 26.5211 138.186 29.316 136.727 31.0001C135.286 32.6634 133.336 33.4092 131.216 33.4092C127.875 33.4092 126.198 31.4318 125.833 30.6889L123.147 31.9951C123.945 33.6226 126.586 36.386 131.216 36.386C134.077 36.386 136.902 35.354 138.99 32.9449C141.059 30.5566 142.259 26.9845 142.259 22.1636Z" fill="#91897F"/>
<path d="M50.2165 10.6484C54.3065 10.6484 56.9864 12.5707 58.6111 14.9401C60.187 17.2385 60.7626 19.9272 60.87 21.6719L57.9016 21.8507C57.8163 20.4631 57.3427 18.3307 56.15 16.5912C55.0059 14.9227 53.1976 13.5901 50.2165 13.5901C46.847 13.5901 43.9119 14.8518 41.1383 16.8669C38.3376 18.9017 35.7872 21.639 33.177 24.5029C30.6105 27.3189 27.9687 30.2783 25.1011 32.5106C22.2082 34.7625 18.9479 36.3877 15.106 36.3877C13.2328 36.3877 11.76 36.0158 10.5851 35.3327C9.40853 34.6486 8.65352 33.7234 8.10511 32.827C7.618 32.0308 7.1564 30.9835 6.86763 30.4349C6.51255 29.7603 6.23072 29.4044 5.92024 29.2049C5.714 29.0724 5.40506 28.9519 4.86281 28.9519C3.87069 28.9519 3.46551 29.348 3.25182 29.658C3.1239 29.8436 3.04345 30.0378 2.99626 30.1893C2.97334 30.2629 2.96033 30.3201 2.95383 30.3521C2.95062 30.3678 2.94914 30.3768 2.94899 30.3778C2.94893 30.3781 2.94912 30.3765 2.94963 30.3728C2.9499 30.3709 2.95036 30.3685 2.95076 30.3655C2.95096 30.364 2.95118 30.3623 2.95141 30.3605L2.95189 30.3562C2.95194 30.3558 2.95197 30.3553 2.76748 30.3329L0.184413 30.0223C0.00162237 30.0001 -3.3555e-05 29.9994 4.03748e-07 29.999C3.55395e-05 29.9988 9.08428e-05 29.9979 0.000161745 29.9973C0.000301782 29.9962 0.000492491 29.995 0.000645767 29.9938C0.000955379 29.9913 0.00140896 29.9887 0.00177515 29.986C0.00251395 29.9803 0.00337139 29.974 0.0043566 29.967C0.00632442 29.953 0.00869128 29.9363 0.0117783 29.917C0.0179554 29.8785 0.0266056 29.8294 0.0383995 29.7715C0.0619036 29.656 0.0986008 29.5025 0.154404 29.3233C0.26468 28.9692 0.457875 28.4893 0.794604 28.0008C1.51024 26.9625 2.7985 26.0103 4.86281 26.0103C5.2764 26.0103 5.66643 26.0493 6.03366 26.1268C6.65952 25.2748 7.55647 24.6129 8.60576 24.3118C10.275 23.8327 12.1102 24.3232 13.5678 25.9252L11.3574 27.893C10.5847 27.0438 9.90042 27.0031 9.4344 27.1369C9.12535 27.2256 8.82932 27.4152 8.59107 27.6717C8.97947 28.1317 9.26897 28.6276 9.50523 29.0764C9.98374 29.9855 10.2008 30.571 10.6493 31.304C11.0365 31.9369 11.4741 32.4374 12.092 32.7967C12.7116 33.157 13.6353 33.4461 15.106 33.4461C18.0378 33.4461 20.6636 32.2216 23.2619 30.199C25.8855 28.1567 28.3403 25.4167 30.9684 22.5332C33.5527 19.6978 36.2951 16.7357 39.378 14.4959C42.488 12.2365 46.0275 10.6484 50.2165 10.6484Z" fill="#91897F"/>
<path d="M149.783 10.6484C145.693 10.6484 143.014 12.5707 141.389 14.9401C139.813 17.2385 139.237 19.9272 139.13 21.6719L142.098 21.8507C142.184 20.4631 142.657 18.3307 143.85 16.5912C144.994 14.9227 146.802 13.5901 149.783 13.5901C153.153 13.5901 156.088 14.8518 158.862 16.8669C161.662 18.9017 164.213 21.639 166.823 24.5029C169.39 27.3189 172.031 30.2783 174.899 32.5106C177.792 34.7625 181.052 36.3877 184.894 36.3877C186.767 36.3877 188.24 36.0158 189.415 35.3327C190.591 34.6486 191.346 33.7234 191.895 32.827C192.382 32.0308 192.844 30.9835 193.132 30.4349C193.487 29.7603 193.769 29.4044 194.08 29.2049C194.286 29.0724 194.595 28.9519 195.137 28.9519C196.129 28.9519 196.534 29.348 196.748 29.658C196.876 29.8436 196.957 30.0378 197.004 30.1893C197.027 30.2629 197.04 30.3201 197.046 30.3521C197.049 30.3678 197.051 30.3768 197.051 30.3778C197.051 30.3781 197.051 30.3765 197.05 30.3728C197.05 30.3709 197.05 30.3685 197.049 30.3655C197.049 30.364 197.049 30.3623 197.049 30.3605L197.048 30.3562C197.048 30.3558 197.048 30.3553 197.233 30.3329L199.816 30.0223C199.998 30.0001 200 29.9994 200 29.999C200 29.9988 200 29.9979 200 29.9973C200 29.9962 200 29.995 199.999 29.9938C199.999 29.9913 199.999 29.9887 199.998 29.986C199.997 29.9803 199.997 29.974 199.996 29.967C199.994 29.953 199.991 29.9363 199.988 29.917C199.982 29.8785 199.973 29.8294 199.962 29.7715C199.938 29.656 199.901 29.5025 199.846 29.3233C199.735 28.9692 199.542 28.4893 199.205 28.0008C198.49 26.9625 197.201 26.0103 195.137 26.0103C194.724 26.0103 194.334 26.0493 193.966 26.1268C193.34 25.2748 192.444 24.6129 191.394 24.3118C189.725 23.8327 187.89 24.3232 186.432 25.9252L188.643 27.893C189.415 27.0438 190.1 27.0031 190.566 27.1369C190.875 27.2256 191.171 27.4152 191.409 27.6717C191.021 28.1317 190.731 28.6276 190.495 29.0764C190.016 29.9855 189.799 30.571 189.351 31.304C188.964 31.9369 188.526 32.4374 187.908 32.7967C187.288 33.157 186.365 33.4461 184.894 33.4461C181.962 33.4461 179.336 32.2216 176.738 30.199C174.114 28.1567 171.66 25.4167 169.032 22.5332C166.447 19.6978 163.705 16.7357 160.622 14.4959C157.512 12.2365 153.972 10.6484 149.783 10.6484Z" fill="#91897F"/>
<path d="M56.2403 21.4316C58.7038 21.4316 60.2953 22.4725 60.87 23.5006L58.3076 24.9509C58.3923 25.1024 57.9583 24.3901 56.2403 24.3901C55.6837 24.3901 55.3336 24.5322 55.0698 24.7249C54.8196 24.9076 54.5745 25.19 54.3255 25.616C54.2017 26.5662 54.257 27.7324 54.6621 28.623C54.8703 29.0807 55.1572 29.4384 55.5421 29.6889C55.9256 29.9384 56.5002 30.1426 57.3837 30.1426V33.1011C56.0313 33.1011 54.8804 32.7815 53.9456 32.1732C53.2694 31.7332 52.7554 31.1743 52.3717 30.5659C52.045 31.3343 51.6507 32.1193 51.1423 32.8513C50.4518 33.8455 49.546 34.7496 48.3121 35.3962C47.0806 36.0415 45.6026 36.3883 43.8264 36.3883V33.4298C45.2159 33.4298 46.2122 33.161 46.9541 32.7722C47.6936 32.3847 48.2605 31.8362 48.7324 31.1567C49.2136 30.4639 49.5894 29.6448 49.9388 28.7297C50.0527 28.4314 50.1606 28.1305 50.2685 27.8246C49.9056 27.7293 49.5354 27.5909 49.1694 27.3994C47.8436 26.7056 46.714 25.3913 46.162 23.2887L49.0045 22.533C49.3672 23.9147 50.0091 24.5042 50.5259 24.7747C50.799 24.9175 51.0769 24.9912 51.3261 25.0222C51.4168 24.8229 51.5128 24.6259 51.6149 24.4333C52.0222 23.6655 52.5626 22.9005 53.3428 22.3306C54.1484 21.7423 55.1142 21.4316 56.2403 21.4316Z" fill="#91897F"/>
<path d="M143.854 21.4316C141.34 21.4316 139.716 22.4725 139.13 23.5006L141.744 24.9509C141.658 25.1024 142.101 24.3901 143.854 24.3901C144.422 24.3901 144.779 24.5322 145.048 24.7249C145.303 24.9076 145.554 25.19 145.808 25.616C145.934 26.5662 145.878 27.7324 145.464 28.623C145.252 29.0807 144.959 29.4384 144.566 29.6889C144.175 29.9384 143.589 30.1426 142.687 30.1426V33.1011C144.067 33.1011 145.241 32.7815 146.195 32.1732C146.885 31.7332 147.41 31.1743 147.801 30.5659C148.135 31.3343 148.537 32.1193 149.056 32.8513C149.76 33.8455 150.685 34.7496 151.944 35.3962C153.2 36.0415 154.709 36.3883 156.521 36.3883V33.4298C155.103 33.4298 154.087 33.161 153.329 32.7722C152.575 32.3847 151.996 31.8362 151.515 31.1567C151.024 30.4639 150.64 29.6448 150.284 28.7297C150.168 28.4314 150.058 28.1305 149.947 27.8246C150.318 27.7293 150.696 27.5909 151.069 27.3994C152.422 26.7056 153.574 25.3913 154.138 23.2887L151.237 22.533C150.867 23.9147 150.212 24.5042 149.685 24.7747C149.406 24.9175 149.123 24.9912 148.868 25.0222C148.776 24.8229 148.678 24.6259 148.574 24.4333C148.158 23.6655 147.607 22.9005 146.81 22.3306C145.988 21.7423 145.003 21.4316 143.854 21.4316Z" fill="#91897F"/>
<path d="M96.8025 11.3428C96.8025 12.7543 96.94 13.591 97.1029 14.1368C97.2588 14.6593 97.456 14.9843 97.7279 15.4077C98.012 15.85 98.4061 16.4367 98.6919 17.3134C98.9747 18.1808 99.1303 19.2519 99.1303 20.7341H96.2406C96.2406 19.4566 96.1052 18.7256 95.9515 18.2544C95.8009 17.7924 95.6131 17.5037 95.3152 17.0399C95.0052 16.5572 94.6204 15.945 94.3399 15.0053C94.0664 14.0889 93.9128 12.9381 93.9128 11.3428H96.8025Z" fill="#91897F"/>
<path d="M103.352 11.3428C103.352 12.7543 103.206 13.591 103.032 14.1368C102.866 14.6593 102.655 14.9843 102.365 15.4077C102.062 15.85 101.642 16.4367 101.337 17.3134C101.035 18.1808 100.869 19.2519 100.869 20.7341H103.952C103.952 19.4566 104.096 18.7256 104.26 18.2544C104.421 17.7924 104.621 17.5037 104.939 17.0399C105.269 16.5572 105.68 15.945 105.979 15.0053C106.271 14.0889 106.435 12.9381 106.435 11.3428H103.352Z" fill="#91897F"/>
<path d="M100.174 21.4318V24.4398C97.776 24.4399 95.3741 24.5103 93.7426 26.4274C93.6294 26.5605 93.5193 26.7033 93.4114 26.8558C93.3025 27.6703 93.3478 28.7105 93.7098 29.5184C93.9007 29.9446 94.1671 30.2812 94.5314 30.5192C94.8953 30.7568 95.4511 30.9575 96.3184 30.9575V33.9656C94.9871 33.9656 93.8555 33.651 92.9373 33.0513C92.1467 32.535 91.5844 31.8528 91.1968 31.1227C90.914 31.6608 90.5995 32.2043 90.2375 32.7209C89.5344 33.7241 88.6302 34.6636 87.3794 35.3418C86.1286 36.0202 84.6217 36.3883 82.7826 36.3883V33.3802C84.2258 33.3802 85.2395 33.0944 85.9916 32.6866C86.7437 32.2787 87.3249 31.6994 87.8338 30.9732C88.3562 30.2278 88.7764 29.3685 89.2347 28.3961C89.2999 28.2578 89.3664 28.1166 89.434 27.9731C89.2927 27.933 89.1501 27.8854 89.007 27.829C87.5136 27.2399 86.2257 25.8382 85.3404 23.4713L88.1001 22.4003C88.7899 24.2445 89.593 24.8344 90.0735 25.0239C90.4401 25.1685 90.7828 25.1461 91.0321 25.0732C91.1813 24.8636 91.3405 24.6575 91.511 24.4571C94.1453 21.3616 97.9781 21.4318 100.174 21.4318Z" fill="#91897F"/>
<path d="M99.8277 21.4318V24.4398C102.226 24.4399 104.628 24.5103 106.259 26.4274C106.372 26.5605 106.482 26.7033 106.59 26.8558C106.699 27.6703 106.654 28.7105 106.292 29.5184C106.101 29.9446 105.835 30.2812 105.47 30.5192C105.106 30.7568 104.551 30.9575 103.683 30.9575V33.9656C105.015 33.9656 106.146 33.651 107.064 33.0513C107.855 32.535 108.417 31.8528 108.805 31.1227C109.088 31.6608 109.402 32.2043 109.764 32.7209C110.467 33.7241 111.372 34.6636 112.622 35.3418C113.873 36.0202 115.38 36.3883 117.219 36.3883V33.3802C115.776 33.3802 114.762 33.0944 114.01 32.6866C113.258 32.2787 112.677 31.6994 112.168 30.9732C111.646 30.2278 111.225 29.3685 110.767 28.3961C110.702 28.2578 110.635 28.1166 110.568 27.9731C110.709 27.933 110.852 27.8854 110.995 27.829C112.488 27.2399 113.776 25.8382 114.661 23.4713L111.902 22.4003C111.212 24.2445 110.409 24.8344 109.928 25.0239C109.562 25.1685 109.219 25.1461 108.97 25.0732C108.82 24.8636 108.661 24.6575 108.491 24.4571C105.856 21.3616 102.024 21.4318 99.8277 21.4318Z" fill="#91897F"/>
</svg>
