<svg width="200" height="37" viewBox="0 0 200 37" fill="none" xmlns="http://www.w3.org/2000/svg">
<path d="M83.0413 8.87516C83.0413 6.89361 83.6672 4.75196 85.0446 3.07679C86.4548 1.36178 88.5948 0.212891 91.401 0.212891C96.1561 0.212909 98.6835 4.01456 98.6835 7.4727H95.7038C95.7038 5.321 94.1944 3.18283 91.401 3.18281C89.4893 3.18281 88.1945 3.9314 87.3492 4.95941C86.4711 6.02729 86.021 7.4743 86.021 8.87516C86.021 9.99231 86.3361 11.3479 86.7798 12.6506C87.0437 13.4253 87.3394 14.1412 87.6056 14.7228C89.5841 15.2816 90.9431 16.324 92.2597 17.2174C93.1992 17.8549 94.1269 18.4317 95.3259 18.863C96.5207 19.2928 98.0492 19.5999 100.175 19.5999V22.5698C97.7475 22.5698 95.8719 22.2169 94.3144 21.6567C92.7612 21.098 91.5886 20.3548 90.5828 19.6724C88.5973 18.3251 87.3213 17.2899 84.5312 17.2899C82.285 17.2899 81.0522 18.1294 79.646 19.1489C78.9382 19.9369 78.8152 20.902 79.0877 21.6246C79.3449 22.3067 80.0371 22.9823 81.4687 22.9823V25.9522C78.9031 25.9522 77.0289 24.6066 76.2984 22.6694C76.0481 22.0056 75.9432 21.2993 75.9807 20.5932C75.2635 20.6958 74.4908 20.7094 73.7219 20.565C72.5235 20.34 71.3374 19.7269 70.4784 18.5214C69.6399 17.3447 69.2178 15.7507 69.2178 13.7425H72.1975C72.1975 15.3643 72.541 16.2869 72.9078 16.8017C73.2541 17.2878 73.7131 17.5413 74.2735 17.6465C74.867 17.758 75.5655 17.6959 76.2496 17.5089C76.938 17.3207 77.4912 17.0393 77.7761 16.8323C79.2519 15.7605 81.0862 14.4096 84.2163 14.3242C84.1284 14.0906 84.0419 13.8505 83.9584 13.6054C83.471 12.1747 83.0413 10.4639 83.0413 8.87516Z" fill="#91897F"/>
<path d="M116.961 8.87516C116.961 6.89361 116.335 4.75196 114.958 3.07679C113.548 1.36178 111.408 0.212891 108.601 0.212891C103.846 0.212909 101.319 4.01456 101.319 7.4727H104.299C104.299 5.321 105.808 3.18283 108.601 3.18281C110.513 3.18281 111.808 3.9314 112.653 4.95941C113.531 6.02729 113.981 7.4743 113.981 8.87516C113.981 9.99231 113.666 11.3479 113.223 12.6506C112.959 13.4253 112.663 14.1412 112.397 14.7228C110.418 15.2816 109.059 16.324 107.743 17.2174C106.803 17.8549 105.876 18.4317 104.677 18.863C103.482 19.2928 101.953 19.5999 99.8279 19.5999V22.5698C102.255 22.5698 104.131 22.2169 105.688 21.6567C107.241 21.098 108.414 20.3548 109.42 19.6724C111.405 18.3251 112.681 17.2899 115.471 17.2899C117.717 17.2899 118.95 18.1294 120.356 19.1489C121.064 19.9369 121.187 20.902 120.915 21.6246C120.658 22.3067 119.965 22.9823 118.534 22.9823V25.9522C121.099 25.9522 122.974 24.6066 123.704 22.6694C123.954 22.0056 124.059 21.2993 124.022 20.5932C124.739 20.6958 125.512 20.7094 126.281 20.565C127.479 20.34 128.665 19.7269 129.524 18.5214C130.363 17.3447 130.785 15.7507 130.785 13.7425H127.805C127.805 15.3643 127.461 16.2869 127.095 16.8017C126.748 17.2878 126.289 17.5413 125.729 17.6465C125.135 17.758 124.437 17.6959 123.753 17.5089C123.064 17.3207 122.511 17.0393 122.226 16.8323C120.75 15.7605 118.916 14.4096 115.786 14.3242C115.874 14.0906 115.961 13.8505 116.044 13.6054C116.531 12.1747 116.961 10.4639 116.961 8.87516Z" fill="#91897F"/>
<path d="M57.7388 22.1627C57.7388 16.1575 59.9035 11.6721 63.1895 8.69923C66.4469 5.7523 70.7019 4.38477 74.7602 4.38477C81.1514 4.38477 84.7869 7.16064 85.9129 8.97798L83.3691 10.541C82.8897 9.76739 80.3255 7.36153 74.7602 7.36153C71.3457 7.36153 67.8373 8.51601 65.1994 10.9024C62.5902 13.263 60.7279 16.9223 60.7279 22.1627C60.7279 26.5202 61.8116 29.315 63.2709 30.9991C64.7122 32.6624 66.6617 33.4082 68.782 33.4082C72.1233 33.4082 73.8002 31.4308 74.1646 30.6879L76.8504 31.9941C76.0523 33.6216 73.4116 36.385 68.782 36.385C65.9203 36.385 63.0955 35.353 61.008 32.9439C58.9385 30.5557 57.7388 26.9835 57.7388 22.1627Z" fill="#91897F"/>
<path d="M142.259 22.1627C142.259 16.1575 140.094 11.6721 136.808 8.69923C133.551 5.7523 129.296 4.38477 125.237 4.38477C118.846 4.38477 115.211 7.16064 114.085 8.97798L116.628 10.541C117.108 9.76739 119.672 7.36153 125.237 7.36153C128.652 7.36153 132.16 8.51601 134.798 10.9024C137.407 13.263 139.27 16.9223 139.27 22.1627C139.27 26.5202 138.186 29.315 136.727 30.9991C135.285 32.6624 133.336 33.4082 131.216 33.4082C127.874 33.4082 126.197 31.4308 125.833 30.6879L123.147 31.9941C123.945 33.6216 126.586 36.385 131.216 36.385C134.077 36.385 136.902 35.353 138.99 32.9439C141.059 30.5557 142.259 26.9835 142.259 22.1627Z" fill="#91897F"/>
<path d="M50.2165 10.6484C54.3065 10.6484 56.9864 12.5707 58.6111 14.9401C60.187 17.2385 60.7626 19.9272 60.87 21.6719L57.9016 21.8507C57.8163 20.4631 57.3427 18.3307 56.15 16.5912C55.0059 14.9227 53.1976 13.5901 50.2165 13.5901C46.847 13.5901 43.9119 14.8518 41.1383 16.8669C38.3376 18.9017 35.7872 21.639 33.177 24.5029C30.6105 27.3189 27.9687 30.2783 25.1011 32.5106C22.2082 34.7625 18.9479 36.3877 15.106 36.3877C13.2328 36.3877 11.76 36.0158 10.5851 35.3327C9.40853 34.6486 8.65352 33.7234 8.10511 32.827C7.618 32.0308 7.1564 30.9835 6.86763 30.4349C6.51255 29.7603 6.23072 29.4044 5.92024 29.2049C5.714 29.0724 5.40506 28.9519 4.86281 28.9519C3.87069 28.9519 3.46551 29.348 3.25182 29.658C3.1239 29.8436 3.04345 30.0378 2.99626 30.1893C2.97334 30.2629 2.96033 30.3201 2.95383 30.3521C2.95062 30.3678 2.94914 30.3768 2.94899 30.3778C2.94893 30.3781 2.94912 30.3765 2.94963 30.3728C2.9499 30.3709 2.95036 30.3685 2.95076 30.3655C2.95096 30.364 2.95118 30.3623 2.95141 30.3605L2.95189 30.3562C2.95194 30.3558 2.95197 30.3553 2.76748 30.3329L0.184413 30.0223C0.00162237 30.0001 -3.3555e-05 29.9994 4.03748e-07 29.999C3.55395e-05 29.9988 9.08428e-05 29.9979 0.000161745 29.9973C0.000301782 29.9962 0.000492491 29.995 0.000645767 29.9938C0.000955379 29.9913 0.00140896 29.9887 0.00177515 29.986C0.00251395 29.9803 0.00337139 29.974 0.0043566 29.967C0.00632442 29.953 0.00869128 29.9363 0.0117783 29.917C0.0179554 29.8785 0.0266056 29.8294 0.0383995 29.7715C0.0619036 29.656 0.0986008 29.5025 0.154404 29.3233C0.26468 28.9692 0.457875 28.4893 0.794604 28.0008C1.51024 26.9625 2.7985 26.0103 4.86281 26.0103C5.2764 26.0103 5.66643 26.0493 6.03366 26.1268C6.65952 25.2748 7.55647 24.6129 8.60576 24.3118C10.275 23.8327 12.1102 24.3232 13.5678 25.9252L11.3574 27.893C10.5847 27.0438 9.90042 27.0031 9.4344 27.1369C9.12535 27.2256 8.82932 27.4152 8.59107 27.6717C8.97947 28.1317 9.26897 28.6276 9.50523 29.0764C9.98374 29.9855 10.2008 30.571 10.6493 31.304C11.0365 31.9369 11.4741 32.4374 12.092 32.7967C12.7116 33.157 13.6353 33.4461 15.106 33.4461C18.0378 33.4461 20.6636 32.2216 23.2619 30.199C25.8855 28.1567 28.3403 25.4167 30.9684 22.5332C33.5527 19.6978 36.2951 16.7357 39.378 14.4959C42.488 12.2365 46.0275 10.6484 50.2165 10.6484Z" fill="#91897F"/>
<path d="M149.783 10.6484C145.693 10.6484 143.014 12.5707 141.389 14.9401C139.813 17.2385 139.237 19.9272 139.13 21.6719L142.098 21.8507C142.184 20.4631 142.657 18.3307 143.85 16.5912C144.994 14.9227 146.802 13.5901 149.783 13.5901C153.153 13.5901 156.088 14.8518 158.862 16.8669C161.662 18.9017 164.213 21.639 166.823 24.5029C169.39 27.3189 172.031 30.2783 174.899 32.5106C177.792 34.7625 181.052 36.3877 184.894 36.3877C186.767 36.3877 188.24 36.0158 189.415 35.3327C190.591 34.6486 191.346 33.7234 191.895 32.827C192.382 32.0308 192.844 30.9835 193.132 30.4349C193.487 29.7603 193.769 29.4044 194.08 29.2049C194.286 29.0724 194.595 28.9519 195.137 28.9519C196.129 28.9519 196.534 29.348 196.748 29.658C196.876 29.8436 196.957 30.0378 197.004 30.1893C197.027 30.2629 197.04 30.3201 197.046 30.3521C197.049 30.3678 197.051 30.3768 197.051 30.3778C197.051 30.3781 197.051 30.3765 197.05 30.3728C197.05 30.3709 197.05 30.3685 197.049 30.3655C197.049 30.364 197.049 30.3623 197.049 30.3605L197.048 30.3562C197.048 30.3558 197.048 30.3553 197.233 30.3329L199.816 30.0223C199.998 30.0001 200 29.9994 200 29.999C200 29.9988 200 29.9979 200 29.9973C200 29.9962 200 29.995 199.999 29.9938C199.999 29.9913 199.999 29.9887 199.998 29.986C199.997 29.9803 199.997 29.974 199.996 29.967C199.994 29.953 199.991 29.9363 199.988 29.917C199.982 29.8785 199.973 29.8294 199.962 29.7715C199.938 29.656 199.901 29.5025 199.846 29.3233C199.735 28.9692 199.542 28.4893 199.205 28.0008C198.49 26.9625 197.201 26.0103 195.137 26.0103C194.724 26.0103 194.334 26.0493 193.966 26.1268C193.34 25.2748 192.444 24.6129 191.394 24.3118C189.725 23.8327 187.89 24.3232 186.432 25.9252L188.643 27.893C189.415 27.0438 190.1 27.0031 190.566 27.1369C190.875 27.2256 191.171 27.4152 191.409 27.6717C191.021 28.1317 190.731 28.6276 190.495 29.0764C190.016 29.9855 189.799 30.571 189.351 31.304C188.964 31.9369 188.526 32.4374 187.908 32.7967C187.288 33.157 186.365 33.4461 184.894 33.4461C181.962 33.4461 179.336 32.2216 176.738 30.199C174.114 28.1567 171.66 25.4167 169.032 22.5332C166.447 19.6978 163.705 16.7357 160.622 14.4959C157.512 12.2365 153.972 10.6484 149.783 10.6484Z" fill="#91897F"/>
<path d="M56.2406 21.4316C58.7041 21.4316 60.2955 22.4725 60.8703 23.5006L58.3079 24.9509C58.3925 25.1024 57.9586 24.3901 56.2406 24.3901C55.684 24.3901 55.3339 24.5322 55.0701 24.7249C54.8199 24.9076 54.5747 25.19 54.3258 25.616C54.2019 26.5662 54.2572 27.7324 54.6624 28.623C54.8706 29.0807 55.1574 29.4384 55.5424 29.6889C55.9258 29.9384 56.5005 30.1426 57.384 30.1426V33.1011C56.0315 33.1011 54.8807 32.7815 53.9458 32.1732C53.2696 31.7332 52.7556 31.1743 52.3719 30.5659C52.0452 31.3343 51.6509 32.1193 51.1425 32.8513C50.4521 33.8455 49.5463 34.7496 48.3123 35.3962C47.0808 36.0415 45.6029 36.3883 43.8267 36.3883V33.4298C45.2162 33.4298 46.2125 33.161 46.9544 32.7722C47.6939 32.3847 48.2607 31.8362 48.7326 31.1567C49.2138 30.4639 49.5896 29.6448 49.939 28.7297C50.0529 28.4314 50.1608 28.1305 50.2687 27.8246C49.9059 27.7293 49.5356 27.5909 49.1697 27.3994C47.8438 26.7056 46.7142 25.3913 46.1622 23.2887L49.0048 22.533C49.3675 23.9147 50.0093 24.5042 50.5262 24.7747C50.7992 24.9175 51.0771 24.9912 51.3263 25.0222C51.4171 24.8229 51.513 24.6259 51.6152 24.4333C52.0224 23.6655 52.5628 22.9005 53.343 22.3306C54.1487 21.7423 55.1145 21.4316 56.2406 21.4316Z" fill="#91897F"/>
<path d="M143.854 21.4316C141.34 21.4316 139.716 22.4725 139.13 23.5006L141.744 24.9509C141.658 25.1024 142.101 24.3901 143.854 24.3901C144.422 24.3901 144.779 24.5322 145.048 24.7249C145.303 24.9076 145.554 25.19 145.808 25.616C145.934 26.5662 145.878 27.7324 145.464 28.623C145.252 29.0807 144.959 29.4384 144.566 29.6889C144.175 29.9384 143.589 30.1426 142.687 30.1426V33.1011C144.067 33.1011 145.241 32.7815 146.195 32.1732C146.885 31.7332 147.41 31.1743 147.801 30.5659C148.135 31.3343 148.537 32.1193 149.056 32.8513C149.76 33.8455 150.685 34.7496 151.944 35.3962C153.2 36.0415 154.709 36.3883 156.521 36.3883V33.4298C155.103 33.4298 154.087 33.161 153.329 32.7722C152.575 32.3847 151.996 31.8362 151.515 31.1567C151.024 30.4639 150.64 29.6448 150.284 28.7297C150.168 28.4314 150.058 28.1305 149.947 27.8246C150.318 27.7293 150.696 27.5909 151.069 27.3994C152.422 26.7056 153.574 25.3913 154.138 23.2887L151.237 22.533C150.867 23.9147 150.212 24.5042 149.685 24.7747C149.406 24.9175 149.123 24.9912 148.868 25.0222C148.776 24.8229 148.678 24.6259 148.574 24.4333C148.158 23.6655 147.607 22.9005 146.81 22.3306C145.988 21.7423 145.003 21.4316 143.854 21.4316Z" fill="#91897F"/>
<path d="M96.8027 11.3438C96.8027 12.7552 96.9402 13.5919 97.1031 14.1378C97.2591 14.6603 97.4563 14.9853 97.7282 15.4087C98.0122 15.851 98.4063 16.4377 98.6922 17.3144C98.975 18.1818 99.1305 19.2529 99.1305 20.7351H96.2409C96.2409 19.4576 96.1054 18.7266 95.9518 18.2553C95.8012 17.7934 95.6133 17.5047 95.3154 17.0409C95.0054 16.5581 94.6206 15.946 94.3401 15.0063C94.0666 14.0899 93.9131 12.9391 93.9131 11.3438H96.8027Z" fill="#91897F"/>
<path d="M103.352 11.3438C103.352 12.7552 103.206 13.5919 103.032 14.1378C102.866 14.6603 102.655 14.9853 102.365 15.4087C102.062 15.851 101.642 16.4377 101.337 17.3144C101.035 18.1818 100.869 19.2529 100.869 20.7351H103.952C103.952 19.4576 104.096 18.7266 104.26 18.2553C104.421 17.7934 104.621 17.5047 104.939 17.0409C105.269 16.5581 105.68 15.946 105.979 15.0063C106.271 14.0899 106.435 12.9391 106.435 11.3438H103.352Z" fill="#91897F"/>
<path d="M100.174 21.4318V24.4398C97.7761 24.4399 95.3742 24.5103 93.7427 26.4274C93.6295 26.5605 93.5194 26.7033 93.4115 26.8558C93.3026 27.6703 93.3479 28.7105 93.7099 29.5184C93.9009 29.9446 94.1672 30.2812 94.5315 30.5192C94.8954 30.7568 95.4512 30.9575 96.3185 30.9575V33.9656C94.9873 33.9656 93.8556 33.651 92.9374 33.0513C92.1468 32.535 91.5845 31.8528 91.1969 31.1227C90.9142 31.6608 90.5997 32.2043 90.2376 32.7209C89.5346 33.7241 88.6303 34.6636 87.3796 35.3418C86.1287 36.0202 84.6218 36.3883 82.7827 36.3883V33.3802C84.2259 33.3802 85.2396 33.0944 85.9917 32.6866C86.7438 32.2787 87.325 31.6994 87.834 30.9732C88.3563 30.2278 88.7765 29.3685 89.2348 28.3961C89.3 28.2578 89.3665 28.1166 89.4341 27.9731C89.2928 27.933 89.1502 27.8854 89.0071 27.829C87.5137 27.2399 86.2258 25.8382 85.3405 23.4713L88.1003 22.4003C88.79 24.2445 89.5931 24.8344 90.0736 25.0239C90.4402 25.1685 90.7829 25.1461 91.0322 25.0732C91.1814 24.8636 91.3406 24.6575 91.5111 24.4571C94.1454 21.3616 97.9782 21.4318 100.174 21.4318Z" fill="#91897F"/>
<path d="M99.8278 21.4318V24.4398C102.226 24.4399 104.628 24.5103 106.259 26.4274C106.372 26.5605 106.483 26.7033 106.59 26.8558C106.699 27.6703 106.654 28.7105 106.292 29.5184C106.101 29.9446 105.835 30.2812 105.47 30.5192C105.107 30.7568 104.551 30.9575 103.683 30.9575V33.9656C105.015 33.9656 106.146 33.651 107.065 33.0513C107.855 32.535 108.417 31.8528 108.805 31.1227C109.088 31.6608 109.402 32.2043 109.764 32.7209C110.467 33.7241 111.372 34.6636 112.622 35.3418C113.873 36.0202 115.38 36.3883 117.219 36.3883V33.3802C115.776 33.3802 114.762 33.0944 114.01 32.6866C113.258 32.2787 112.677 31.6994 112.168 30.9732C111.646 30.2278 111.225 29.3685 110.767 28.3961C110.702 28.2578 110.635 28.1166 110.568 27.9731C110.709 27.933 110.852 27.8854 110.995 27.829C112.488 27.2399 113.776 25.8382 114.661 23.4713L111.902 22.4003C111.212 24.2445 110.409 24.8344 109.928 25.0239C109.562 25.1685 109.219 25.1461 108.97 25.0732C108.821 24.8636 108.661 24.6575 108.491 24.4571C105.857 21.3616 102.024 21.4318 99.8278 21.4318Z" fill="#91897F"/>
</svg>
